<?xml version="1.0" standalone="no"?>
<!DOCTYPE svg PUBLIC "-//W3C//DTD SVG 20010904//EN"
 "http://www.w3.org/TR/2001/REC-SVG-20010904/DTD/svg10.dtd">
<svg version="1.0" xmlns="http://www.w3.org/2000/svg"
 width="750.000000pt" height="750.000000pt" viewBox="0 0 750.000000 750.000000"
 preserveAspectRatio="xMidYMid meet">
<metadata>
Created by potrace 1.16, written by Peter Selinger 2001-2019
</metadata>
<g transform="translate(0.000000,750.000000) scale(0.100000,-0.100000)"
fill="#000000" stroke="none">
<path d="M0 6436 l0 -1063 118 -6 c114 -6 516 -2 736 7 60 3 117 1 127 -5 27
-14 447 -15 461 -1 18 18 11 232 -7 252 -8 9 -15 29 -15 43 0 15 -9 36 -21 48
-17 17 -61 104 -57 112 4 7 -27 77 -34 77 -4 0 -8 9 -8 20 0 13 -7 20 -20 20
-13 0 -20 7 -20 20 0 19 -7 20 -90 20 -82 0 -90 -2 -90 -19 0 -11 -7 -27 -17
-36 -13 -14 -14 -18 -2 -25 11 -7 9 -13 -9 -28 -12 -11 -22 -27 -22 -36 0 -9
-7 -16 -15 -16 -8 0 -15 -6 -15 -14 0 -7 -7 -27 -15 -42 -8 -16 -15 -46 -15
-67 0 -38 0 -39 -32 -32 -42 9 -48 13 -48 30 0 8 -6 18 -14 22 -19 11 -35 84
-53 238 -17 149 -18 515 -2 921 12 319 13 414 3 438 -5 12 -3 21 4 24 6 2 8
10 5 19 -7 18 -10 44 -12 101 l-1 42 -410 0 -410 0 0 -1064z"/>
<path d="M1643 7128 c3 -205 9 -384 14 -397 9 -23 14 -24 75 -22 49 2 67 -1
71 -12 3 -8 19 -17 36 -20 17 -4 31 -13 31 -21 0 -7 10 -16 23 -20 47 -12 62
-111 27 -179 -12 -23 -27 -45 -34 -50 -8 -5 -6 -11 6 -21 16 -12 15 -14 -12
-35 -17 -12 -30 -28 -30 -36 0 -20 -18 -19 -63 4 -46 23 -134 47 -143 39 -8
-9 -23 -295 -24 -468 -1 -93 -7 -179 -19 -240 -9 -52 -17 -134 -17 -182 1 -72
-2 -88 -14 -88 -13 0 -13 -1 0 -10 13 -10 320 -8 1260 4 l155 2 -3 25 c-2 13
-8 29 -13 35 -15 18 2 53 36 74 29 18 33 26 39 81 3 34 3 66 -1 72 -3 5 -1 7
5 3 5 -3 20 6 31 21 21 28 21 28 37 8 9 -11 14 -14 12 -6 -2 8 15 32 39 54 23
22 40 44 36 50 -3 6 -1 7 6 3 6 -4 32 7 57 24 49 32 79 36 79 9 0 -16 74 -106
76 -92 0 5 5 -3 10 -16 5 -14 7 -37 4 -53 -5 -19 -3 -28 6 -28 26 0 51 -44 46
-82 -4 -32 -2 -38 14 -38 21 0 26 -16 7 -23 -10 -4 -10 -8 1 -15 9 -6 12 -21
9 -41 -3 -18 0 -35 6 -38 6 -3 8 -2 3 2 -4 5 34 19 85 32 51 13 101 32 113 43
41 39 94 15 81 -35 -6 -23 -2 -28 39 -46 44 -19 67 -21 443 -22 218 0 405 1
415 3 10 2 16 9 13 16 -3 8 -2 16 3 18 10 6 74 -16 94 -32 8 -7 31 -16 51 -19
33 -5 40 -2 84 44 35 36 59 52 87 57 22 4 48 14 59 22 11 8 29 14 38 14 10 0
27 5 37 12 14 8 29 8 65 -3 25 -7 46 -16 46 -20 0 -4 -23 -10 -51 -14 -57 -8
-74 -29 -43 -54 11 -9 23 -24 26 -33 6 -15 45 -16 465 -16 255 0 540 -5 643
-12 102 -6 409 -13 682 -13 l498 -2 0 126 0 126 -37 -10 c-27 -7 -60 -6 -111
3 -70 11 -74 14 -99 53 -31 49 -41 123 -23 167 15 37 53 65 100 74 34 6 100
59 100 80 0 6 9 22 20 36 24 31 24 39 0 68 -18 22 -22 23 -55 11 -28 -11 -40
-11 -55 -1 -11 7 -33 12 -50 12 -21 0 -30 5 -30 16 0 9 -9 18 -20 21 -11 3
-20 10 -20 16 0 6 -8 19 -17 29 -9 10 -17 33 -18 51 -2 36 -14 69 -28 79 -9 5
-15 31 -19 74 -1 6 -13 26 -28 44 -26 32 -29 33 -58 21 -17 -7 -40 -10 -52 -6
-24 8 -62 -7 -98 -40 -17 -15 -39 -20 -80 -21 -75 -2 -152 -14 -152 -25 0 -4
-17 -6 -37 -5 -21 2 -43 0 -49 -5 -21 -17 -44 2 -44 36 0 23 -5 35 -18 39 -26
9 -56 146 -32 146 21 0 9 18 -20 30 -38 16 -39 30 -1 30 23 0 31 5 34 23 3 19
5 18 12 -10 6 -26 13 -33 31 -33 12 0 26 -5 30 -11 4 -8 -3 -10 -22 -7 -16 3
-23 3 -16 1 7 -3 9 -9 6 -15 -4 -6 1 -8 14 -4 14 5 28 -1 47 -20 l27 -27 -6
54 c-4 30 -3 83 1 119 l8 65 37 0 c21 0 44 7 53 16 14 13 14 19 1 45 -18 38
-10 87 21 118 l24 24 -32 7 c-17 4 -69 7 -115 8 -60 0 -84 4 -88 13 -3 8 -12
14 -21 14 -8 0 -15 4 -15 9 0 5 -18 12 -40 16 -22 4 -40 12 -40 19 0 13 -41
36 -64 36 -13 0 -56 53 -56 70 0 5 -4 10 -10 10 -14 0 -12 42 4 63 8 10 26 17
45 17 17 0 31 5 31 10 0 7 37 9 103 6 117 -5 159 -13 170 -32 4 -8 14 -14 22
-14 8 0 19 -9 25 -20 6 -11 16 -20 22 -20 7 0 24 -12 39 -26 24 -23 33 -25 68
-19 23 4 48 13 55 21 8 8 21 14 29 14 28 0 48 13 57 35 20 52 122 38 182 -24
35 -38 40 -48 47 -111 6 -63 5 -70 -10 -70 -10 0 -20 6 -22 13 -3 6 -6 3 -6
-8 -1 -11 -16 -30 -34 -42 -38 -26 -90 -29 -197 -12 -72 12 -118 6 -90 -11 8
-6 25 -10 38 -10 13 0 21 -4 18 -9 -3 -5 1 -11 9 -15 11 -4 15 -21 15 -65 l0
-59 52 -11 c28 -6 71 -20 96 -31 43 -19 82 -19 82 1 0 5 23 9 50 9 43 0 50 -3
50 -20 0 -11 5 -20 10 -20 6 0 10 8 10 19 0 15 10 20 55 26 41 5 59 12 74 31
10 13 24 24 30 24 5 0 26 8 46 17 l35 17 0 108 0 108 -30 0 c-23 0 -30 -4 -30
-20 0 -16 -7 -20 -30 -20 -40 0 -40 29 0 52 23 13 30 24 30 48 0 16 5 30 10
30 6 0 10 14 10 30 0 23 4 30 20 30 19 0 20 7 20 94 0 86 -2 95 -20 101 -12 4
-20 15 -20 29 0 12 -6 34 -12 49 l-13 27 -645 -1 c-355 -1 -629 -5 -610 -9 73
-14 96 -29 70 -45 -7 -5 -8 -11 -1 -19 13 -15 2 -33 -24 -37 -11 -3 -21 -14
-23 -26 -2 -15 -13 -23 -38 -27 -33 -7 -34 -8 -28 -47 6 -37 4 -42 -33 -77
-22 -20 -45 -47 -51 -58 -13 -25 -78 -37 -180 -34 -81 2 -130 22 -138 58 -4
15 -13 39 -20 54 -8 16 -11 39 -8 57 5 25 12 31 33 31 34 1 61 22 61 48 0 24
25 34 128 53 40 7 72 17 72 22 0 14 -27 37 -34 29 -4 -3 -4 1 0 11 6 16 -47
17 -890 17 l-896 0 0 -24 c0 -17 7 -26 25 -30 16 -4 25 -13 25 -26 0 -11 10
-25 22 -31 12 -7 29 -20 38 -30 15 -19 79 -24 405 -33 108 -2 158 -17 174 -52
19 -43 13 -64 -34 -110 -25 -24 -45 -51 -45 -61 0 -34 12 -63 26 -63 23 0 21
-36 -3 -87 -8 -18 -18 -32 -21 -31 -15 3 -42 -15 -42 -27 0 -6 -9 -20 -20 -30
-15 -14 -29 -16 -65 -11 -52 8 -71 -4 -71 -44 0 -25 17 -50 34 -50 5 0 13 -16
17 -36 3 -20 13 -44 22 -52 14 -14 13 -18 -7 -34 l-23 -19 21 -6 c30 -7 28
-18 -13 -59 -44 -44 -54 -78 -29 -106 13 -15 14 -19 4 -14 -8 4 -5 -1 7 -11
24 -19 21 -31 -12 -49 -11 -6 -21 -16 -21 -23 -1 -6 -2 -17 -3 -25 0 -7 -15
-16 -31 -19 -21 -5 -30 -12 -30 -25 0 -28 -34 -62 -61 -62 -28 0 -49 37 -49
87 0 26 -4 33 -19 33 -10 0 -39 18 -64 40 -25 22 -50 40 -56 40 -6 0 -16 10
-21 23 -5 12 -19 33 -30 47 -27 34 -41 110 -47 259 -4 111 -7 126 -27 146 -23
23 -59 26 -78 7 -7 -7 -17 -12 -24 -12 -7 0 -14 -5 -16 -11 -2 -6 -47 -13
-113 -16 -91 -4 -113 -8 -126 -23 -9 -10 -43 -28 -75 -39 -69 -25 -64 -24 -64
-7 0 15 -79 30 -105 20 -22 -9 -18 -34 6 -34 11 0 17 -4 14 -10 -4 -6 8 -10
29 -10 33 0 41 -7 37 -32 0 -5 7 -8 16 -8 14 0 13 -3 -5 -16 -12 -8 -22 -24
-22 -35 0 -54 -36 -69 -177 -73 l-53 -2 0 32 c0 21 -5 31 -15 31 -8 0 -15 -4
-15 -8 0 -3 -9 -9 -20 -12 -11 -3 -24 -16 -29 -30 -9 -23 -13 -25 -43 -17 -18
5 -55 11 -82 14 -54 6 -87 32 -106 82 -9 22 -7 29 14 48 14 11 30 37 37 56 7
23 43 66 101 122 84 81 113 103 131 100 4 -1 7 9 7 23 0 18 5 25 19 25 11 0
33 11 49 25 17 14 44 28 61 31 17 4 31 13 31 20 0 18 24 27 129 48 52 11 86
14 90 8 3 -6 53 -12 111 -14 98 -3 105 -2 108 17 3 11 13 27 23 36 23 20 25
55 3 63 -21 8 -84 -3 -84 -15 0 -5 -9 -9 -20 -9 -12 0 -20 7 -20 16 0 13 -7
15 -30 10 -17 -3 -39 0 -49 6 -14 9 -34 9 -75 2 -72 -14 -157 3 -238 46 -55
29 -66 32 -128 27 -37 -3 -84 -11 -104 -18 -30 -11 -42 -11 -73 0 -43 16 -85
45 -77 54 4 3 -20 13 -51 23 -37 10 -53 19 -45 24 9 6 7 10 -9 15 -11 3 -21
11 -21 16 0 5 -50 9 -114 9 -106 0 -115 -1 -121 -20 -12 -39 -49 -53 -117 -46
-72 9 -94 18 -103 46 -6 20 -15 20 -446 20 l-440 0 4 -372z m1021 41 c26 -12
34 -24 46 -76 4 -19 3 -36 -3 -42 -5 -5 -12 -44 -15 -85 -4 -68 -7 -75 -28
-80 -27 -7 -65 6 -83 28 -7 9 -24 16 -37 16 -22 0 -29 10 -25 33 1 5 -3 6 -8
3 -5 -4 -12 3 -16 14 -3 11 -11 20 -16 20 -13 0 -11 -17 4 -24 8 -3 4 -11 -13
-25 -14 -12 -31 -26 -37 -31 -10 -8 -13 -7 -13 3 0 9 -15 18 -37 22 -39 7 -62
28 -63 58 0 9 -4 17 -10 17 -5 0 -10 9 -10 20 0 11 -4 20 -10 20 -5 0 -10 9
-10 20 0 11 7 20 15 20 8 0 15 -4 15 -10 0 -5 11 -10 25 -10 14 0 25 5 25 10
0 13 66 13 91 0 15 -9 21 -7 26 7 15 38 52 65 88 62 19 -2 40 2 47 9 15 15 21
15 52 1z m2599 -325 c67 -1 114 -7 123 -15 8 -7 38 -16 65 -20 31 -5 58 -16
69 -29 9 -11 22 -20 29 -20 6 0 11 -4 11 -10 0 -5 -7 -10 -15 -10 -8 0 -22
-11 -31 -25 -16 -24 -15 -27 1 -45 16 -18 15 -19 -15 -35 -39 -20 -135 -12
-165 15 -22 19 -60 31 -115 35 -32 2 -35 5 -40 36 -3 21 -11 34 -20 34 -25 1
-60 16 -60 26 0 6 -9 7 -20 4 -11 -4 -20 -2 -20 4 0 6 14 11 30 11 17 0 30 5
30 10 0 6 -7 10 -15 10 -8 0 -15 4 -15 10 0 14 33 30 50 23 8 -3 64 -7 123 -9z
m787 -94 c0 -5 7 -10 15 -10 8 0 15 -5 15 -11 0 -7 10 -9 25 -7 17 4 31 -2 46
-18 19 -20 20 -26 8 -57 -7 -20 -23 -40 -36 -46 -19 -9 -22 -16 -17 -36 5 -19
2 -25 -10 -25 -13 0 -16 -11 -16 -55 0 -42 -3 -55 -15 -55 -8 0 -15 -4 -15 -9
0 -5 -9 -13 -20 -16 -11 -3 -20 -13 -20 -22 0 -8 -10 -23 -21 -32 -17 -14 -22
-30 -24 -77 -1 -32 -5 -67 -10 -76 -6 -16 0 -18 67 -18 69 0 76 2 88 24 18 35
35 39 72 16 24 -15 34 -16 40 -7 6 9 10 8 18 -3 7 -12 12 -12 22 -2 14 14 48
16 48 2 0 -5 7 -7 15 -3 9 3 23 -1 33 -9 9 -7 30 -20 45 -28 16 -8 37 -26 48
-41 16 -23 17 -28 4 -33 -18 -6 -9 -36 11 -36 8 0 14 -4 14 -10 0 -5 7 -10 15
-10 8 0 15 -9 15 -19 0 -11 6 -22 13 -25 10 -5 10 -7 0 -12 -7 -3 -13 -12 -13
-20 0 -8 -7 -14 -15 -14 -8 0 -15 7 -15 15 0 8 -4 15 -9 15 -5 0 -7 -10 -4
-22 4 -19 3 -20 -6 -8 -9 13 -11 13 -11 -2 0 -9 5 -20 11 -24 8 -4 8 -9 0 -17
-6 -6 -11 -19 -11 -29 0 -10 -4 -18 -10 -18 -5 0 -10 -6 -10 -13 0 -6 -14 -18
-31 -26 -22 -9 -27 -16 -18 -21 18 -12 -46 -64 -85 -68 -16 -2 -39 -14 -51
-28 -11 -13 -26 -24 -32 -24 -6 0 -13 -7 -17 -15 -4 -11 -21 -15 -60 -15 -34
0 -57 -5 -60 -12 -5 -10 -7 -10 -12 0 -3 6 -14 12 -25 12 -10 0 -19 5 -19 10
0 6 -7 10 -15 10 -18 0 -20 20 -2 20 13 1 77 82 77 99 0 5 7 17 16 26 15 15
15 17 -1 35 -11 12 -13 20 -7 20 7 0 12 15 12 35 0 33 2 35 35 35 19 0 35 5
35 10 0 6 9 10 20 10 11 0 20 2 20 4 0 2 3 12 6 20 5 12 2 15 -10 10 -9 -3
-16 -1 -16 5 0 7 -27 11 -75 11 -60 0 -75 3 -75 15 0 18 -20 20 -20 3 -1 -8
-6 -5 -15 6 -7 10 -18 15 -24 11 -6 -3 -19 -1 -28 4 -10 6 -12 11 -5 11 14 0
17 40 2 40 -5 0 -10 16 -10 35 0 21 -5 35 -12 35 -9 0 -8 3 1 9 12 8 8 11 -14
17 -16 4 -40 18 -53 31 -24 24 -62 31 -62 12 0 -6 -8 -18 -17 -27 -16 -16 -22
-12 -26 15 -1 14 -25 33 -41 33 -19 0 -22 36 -3 44 10 5 10 7 0 12 -7 3 -13
12 -13 19 0 8 -18 19 -41 25 -53 15 -79 31 -79 50 0 13 -1 13 -10 0 -5 -8 -10
-10 -10 -3 0 6 -18 14 -40 18 -39 7 -54 28 -27 38 10 3 10 9 0 26 -7 11 -13
26 -13 32 0 16 60 83 82 91 10 4 18 12 18 18 0 5 20 10 44 10 43 0 44 -1 50
-37 3 -21 5 -47 3 -58 -2 -18 5 -20 87 -23 51 -2 94 2 99 7 16 16 39 81 44
125 3 22 13 47 22 57 32 34 121 63 121 39z m-650 -324 c0 -113 0 -114 -25
-120 -16 -4 -25 -13 -25 -26 0 -11 -7 -20 -15 -20 -11 0 -15 11 -15 40 0 33
-3 40 -20 40 -22 0 -27 -15 -7 -24 10 -5 10 -7 0 -12 -7 -3 -13 -14 -13 -25 0
-15 -7 -19 -35 -19 -19 0 -35 -4 -35 -10 0 -5 7 -10 15 -10 8 0 15 -4 15 -10
0 -5 -7 -10 -15 -10 -8 0 -15 -9 -15 -19 0 -22 -17 -31 -85 -43 -77 -13 -225
-5 -225 13 0 5 -9 9 -20 9 -13 0 -20 7 -20 20 0 11 -4 20 -9 20 -16 0 -19 36
-5 55 8 10 14 26 14 34 0 9 12 29 26 45 25 28 27 29 72 18 26 -7 78 -13 115
-14 38 -1 71 -6 73 -10 3 -4 32 -8 65 -8 74 0 109 27 109 85 0 28 4 35 20 35
17 0 20 7 20 40 0 33 3 40 20 40 19 0 20 -7 20 -114z m-2520 -141 c0 -18 5
-25 19 -25 10 0 21 -9 24 -20 3 -11 2 -20 -3 -20 -4 0 -10 -9 -13 -20 -3 -12
-14 -20 -27 -20 -14 0 -24 -8 -27 -20 -3 -11 -16 -23 -29 -26 -30 -8 -22 -21
19 -32 25 -6 33 -15 38 -38 7 -39 1 -54 -22 -54 -10 0 -19 -7 -19 -15 0 -10
10 -15 34 -15 26 0 36 -5 41 -20 3 -11 12 -20 19 -20 8 0 19 -13 26 -30 7 -16
19 -30 26 -30 8 0 14 -11 14 -26 0 -17 6 -28 20 -31 11 -3 20 -9 20 -14 0 -5
7 -9 15 -9 8 0 15 -5 15 -11 0 -13 -63 -1 -68 12 -5 12 -42 11 -42 -1 0 -17
-31 -11 -48 10 -11 13 -33 22 -62 24 -49 5 -165 31 -205 46 -20 8 -25 16 -25
45 0 20 -4 45 -10 55 -6 12 -6 29 2 52 14 42 18 47 47 51 13 2 29 11 36 20 7
10 26 17 44 17 17 0 31 5 31 10 0 6 -6 10 -13 10 -8 0 -14 12 -15 29 -1 30 35
71 63 71 8 0 15 9 15 20 0 11 5 20 10 20 6 0 10 7 10 15 0 8 9 15 20 15 15 0
20 -7 20 -25z m1080 -5 c0 -11 5 -20 10 -20 15 0 12 -16 -5 -34 -8 -8 -15 -19
-15 -25 0 -5 -9 -13 -20 -16 -11 -3 -20 -12 -20 -20 0 -7 -11 -16 -25 -19 -16
-4 -25 -13 -25 -25 0 -11 -6 -22 -12 -24 -10 -4 -10 -7 0 -15 7 -5 10 -16 6
-26 -5 -13 -9 -14 -20 -5 -11 9 -14 7 -14 -8 0 -23 -23 -35 -109 -56 -90 -22
-120 -5 -121 71 0 13 6 22 15 22 10 0 15 10 15 30 0 20 -5 30 -15 30 -22 0
-20 71 3 97 20 23 71 50 90 47 6 -1 21 -2 32 -3 13 -1 20 -8 20 -21 0 -15 7
-20 25 -20 14 0 25 -4 25 -10 0 -5 18 -10 40 -10 29 0 40 4 40 15 0 21 41 64
63 64 11 1 17 -6 17 -19z m2739 -67 c33 -29 41 -63 16 -63 -8 0 -23 -8 -33
-18 -17 -17 -73 -42 -93 -42 -5 0 -9 11 -9 25 0 18 -5 25 -20 25 -11 0 -20 5
-20 10 0 6 9 10 20 10 13 0 20 7 20 20 0 16 7 20 30 20 17 0 30 5 30 10 0 6
-4 10 -10 10 -5 0 -10 5 -10 10 0 20 49 9 79 -17z m-1650 -112 c11 -12 30 -18
61 -18 25 -1 50 -2 55 -4 6 -1 27 5 49 14 42 18 150 17 168 -1 6 -6 26 -8 45
-5 31 5 35 3 46 -26 6 -17 15 -31 19 -31 4 0 8 -5 8 -11 0 -5 -4 -8 -9 -5 -4
3 -16 -3 -26 -14 -18 -20 -18 -21 3 -43 12 -13 22 -29 22 -37 0 -23 -32 -50
-59 -50 -14 0 -48 -12 -76 -25 -65 -32 -85 -31 -121 5 -26 26 -36 29 -90 30
-64 0 -118 20 -128 46 -3 8 -9 13 -14 11 -4 -3 -16 1 -27 9 -11 8 -14 14 -6
14 10 0 11 3 2 14 -9 11 -8 17 8 28 14 10 17 18 10 28 -21 34 -3 89 30 90 7 0
21 -8 30 -19z m-2913 -261 c8 0 14 -4 14 -10 0 -5 -5 -10 -11 -10 -6 0 -9 -12
-7 -27 2 -23 -3 -30 -31 -44 -19 -9 -40 -24 -48 -34 -7 -11 -13 -16 -13 -12 0
4 -18 -3 -40 -14 -45 -24 -106 -31 -119 -15 -4 6 -11 24 -14 40 -4 22 1 34 21
52 14 13 22 24 18 24 -13 0 34 44 52 48 38 10 157 17 160 10 2 -5 10 -8 18 -8z"/>
<path d="M3226 5202 c-4 -7 -16 -10 -27 -7 -15 5 -19 1 -19 -14 0 -23 -28 -29
-47 -10 -8 8 -17 7 -32 -3 -18 -11 -23 -11 -30 1 -5 8 -11 9 -15 3 -3 -5 -27
-13 -53 -17 -42 -6 -45 -8 -25 -16 29 -11 20 -29 -14 -29 -14 0 -22 4 -19 10
3 6 2 10 -4 10 -5 0 -14 -6 -18 -14 -10 -17 -53 -39 -61 -32 -3 3 5 18 19 33
13 15 17 22 8 15 -9 -6 -19 -9 -22 -5 -4 3 -7 -1 -7 -10 0 -16 -11 -21 -37
-18 -7 1 -13 -5 -13 -14 0 -11 -8 -16 -22 -15 -40 4 -44 -1 -13 -15 l30 -13
-25 -11 c-17 -7 -20 -10 -8 -10 14 -1 16 -5 8 -26 -5 -14 -7 -25 -4 -25 12 0
62 30 74 45 17 20 116 85 130 85 6 0 10 -4 10 -10 0 -15 52 -11 74 5 14 10 24
11 38 4 23 -12 58 -3 58 16 0 14 21 25 51 25 13 0 17 5 12 16 -3 9 0 20 7 24
7 4 10 14 8 21 -3 10 -6 10 -12 1z"/>
<path d="M2300 5185 c-7 -9 -15 -13 -18 -10 -3 3 -12 0 -19 -7 -9 -7 -17 -8
-21 -2 -12 16 -31 15 -76 -7 -49 -23 -88 -74 -105 -135 -6 -22 -17 -48 -25
-60 -21 -29 -5 -48 40 -48 20 0 32 -2 26 -4 -18 -6 -14 -22 6 -22 13 0 14 -2
3 -9 -11 -7 -9 -10 9 -16 31 -10 81 2 110 26 l25 21 -26 -15 c-14 -9 -44 -18
-65 -21 -37 -5 -38 -5 -11 6 32 14 34 24 7 33 -24 8 -25 18 -4 36 13 10 17 10
25 -2 5 -8 9 -20 9 -26 0 -19 32 -15 60 7 23 18 24 20 5 20 -12 0 -26 -5 -33
-12 -16 -16 -16 4 1 21 10 11 8 11 -10 2 -20 -10 -23 -9 -23 9 0 13 -11 24
-35 34 -34 14 -52 45 -19 32 9 -3 28 -9 42 -12 15 -4 32 -13 39 -21 12 -16 52
0 172 69 52 30 53 32 31 40 -13 5 -31 6 -39 2 -9 -4 -20 -6 -25 -5 -4 1 -14
-6 -21 -15 -11 -16 -13 -16 -25 5 -9 18 -18 22 -41 19 -17 -3 -32 -1 -35 4 -6
10 -9 9 96 13 47 1 95 -1 106 -6 14 -5 31 -1 53 12 33 20 42 36 14 24 -10 -4
-57 -8 -105 -9 -85 -2 -112 5 -65 18 18 5 20 8 7 16 -20 13 -25 13 -40 -5z"/>
<path d="M3298 5143 c-10 -2 -18 -9 -18 -14 0 -6 9 -5 21 2 17 9 20 8 14 -2
-5 -7 -2 -17 6 -23 8 -6 23 -28 32 -48 10 -21 24 -38 32 -38 7 0 35 -20 62
-45 26 -24 53 -45 59 -45 7 0 14 -6 17 -13 3 -7 30 -22 61 -32 31 -11 56 -23
56 -27 0 -4 16 -8 36 -8 22 0 47 -9 69 -25 59 -46 147 -56 125 -15 -12 22 -13
40 -2 39 21 -4 42 2 42 11 0 6 -14 10 -32 10 -34 0 -29 14 7 23 15 4 13 5 -7
6 -17 1 -28 7 -28 15 0 8 -20 22 -44 32 -34 14 -42 22 -34 31 7 9 5 14 -8 19
-49 16 -72 29 -68 36 3 4 -3 8 -13 8 -13 0 -5 -13 30 -45 26 -24 47 -49 47
-55 0 -15 6 -17 -117 41 -47 21 -71 49 -43 49 6 0 10 5 10 10 0 6 -9 10 -19
10 -27 0 -36 17 -20 38 7 9 9 14 5 10 -5 -4 -16 -2 -24 5 -13 10 -14 8 -7 -12
4 -13 8 -31 9 -39 2 -9 8 -18 14 -20 18 -6 14 -42 -4 -42 -8 0 -13 4 -10 9 3
5 -1 12 -10 15 -8 3 -12 11 -9 17 9 14 -26 39 -47 33 -23 -7 -32 13 -12 24 15
8 14 11 -7 17 -13 4 -29 15 -36 24 -11 14 -12 13 -13 -6 0 -16 -6 -23 -20 -23
-13 0 -20 7 -20 19 0 27 -33 37 -82 24z"/>
<path d="M3734 5105 c17 -13 39 -26 51 -29 12 -3 39 -13 61 -23 39 -17 46 -19
62 -22 5 0 15 -12 22 -26 7 -14 17 -25 22 -25 5 0 30 -15 56 -32 26 -18 63
-40 82 -49 34 -15 102 -58 127 -79 7 -5 17 -10 23 -10 5 0 10 -4 10 -10 0 -17
74 -79 95 -80 18 -1 18 -1 3 -11 -23 -13 -69 10 -93 47 -17 26 -18 26 -28 8
-10 -18 -11 -18 -18 6 -7 24 -7 24 -8 3 -1 -13 -6 -23 -12 -23 -6 0 -9 -7 -5
-15 3 -8 1 -15 -4 -15 -5 0 -15 7 -24 15 -8 8 -21 15 -29 15 -9 0 -17 5 -19
12 -2 6 -11 9 -18 6 -9 -3 16 -20 61 -42 70 -34 82 -37 153 -34 l76 3 -25 37
c-21 31 -25 49 -25 110 0 95 -6 115 -39 127 -22 9 -21 10 13 4 l39 -6 -19 32
c-11 18 -29 42 -41 53 -20 19 -23 19 -23 5 0 -15 -9 -17 -66 -12 -37 3 -72 9
-78 15 -7 5 -22 6 -35 3 -14 -4 -26 -1 -32 8 -6 10 -9 10 -9 2 0 -7 -8 -13
-17 -13 -19 1 -75 29 -58 30 16 1 -18 20 -35 20 -12 -1 -12 -3 3 -14 9 -7 17
-21 17 -30 0 -19 -4 -20 -32 -5 -15 8 -19 8 -14 0 11 -18 -16 -13 -49 9 -16
11 -40 20 -52 20 -13 0 -23 3 -23 8 0 8 -49 32 -64 32 -6 -1 2 -12 18 -25z"/>
<path d="M3488 4509 c-16 -15 -28 -37 -28 -52 0 -20 -6 -27 -29 -32 -15 -3
-56 -26 -90 -51 -50 -37 -71 -45 -120 -50 -37 -4 -61 -3 -65 4 -8 13 24 24 62
22 39 -3 55 -1 70 8 16 11 4 45 -13 38 -7 -2 -15 4 -18 14 -3 11 -21 27 -41
37 -32 15 -41 15 -69 4 -18 -7 -56 -17 -85 -21 -61 -10 -73 -16 -46 -27 29
-10 91 -73 74 -74 -8 0 -23 -2 -33 -4 -26 -5 -77 15 -77 30 0 23 -31 39 -78
39 -76 -1 -142 -14 -142 -29 0 -22 -31 -27 -46 -8 -17 23 -17 30 -1 36 7 2 8
8 3 13 -5 5 -11 4 -13 -3 -3 -7 -20 -13 -38 -13 -19 0 -37 -4 -40 -10 -3 -5
-1 -10 4 -10 19 0 12 -18 -10 -25 -16 -5 -18 -9 -9 -15 17 -10 4 -30 -20 -30
-25 0 -31 -11 -32 -65 0 -29 5 -52 16 -64 9 -9 16 -22 16 -28 0 -5 11 -16 25
-23 14 -7 25 -19 25 -25 0 -20 32 -43 37 -27 6 17 38 15 57 -3 26 -26 146 -39
146 -15 0 4 -14 6 -32 3 -28 -4 -30 -3 -19 11 8 9 24 16 37 16 12 0 26 5 30
11 3 6 17 8 30 5 28 -7 64 12 57 31 -8 21 20 25 65 9 46 -17 41 -20 78 49 15
28 37 29 52 4 11 -17 11 -25 -3 -45 -15 -23 -15 -25 7 -33 25 -9 51 -4 43 9
-7 12 20 20 44 13 13 -3 21 -13 21 -28 0 -12 9 -34 20 -48 11 -14 20 -30 20
-37 0 -6 8 -10 18 -8 11 2 17 13 17 31 1 18 11 36 30 52 17 14 36 30 43 36 7
6 24 8 38 5 21 -6 24 -3 24 19 0 19 6 26 28 30 54 12 93 36 113 69 21 37 91
76 133 76 14 0 31 -8 38 -17 8 -11 26 -18 45 -18 41 1 48 8 32 34 -12 17 -10
23 9 44 32 33 29 59 -5 57 -56 -4 -73 0 -73 16 0 13 8 15 39 12 34 -3 37 -1
28 14 -17 27 -44 28 -95 5 -56 -25 -98 -32 -107 -17 -3 5 -17 10 -31 10 -18 0
-24 -6 -25 -22 0 -13 -3 -18 -5 -11 -4 8 -11 6 -25 -8 -24 -24 -45 -24 -66 1
-10 11 -26 20 -36 20 -10 0 -15 5 -11 11 3 6 15 9 25 6 20 -5 23 9 11 48 -7
20 -8 20 -34 -6z"/>
<path d="M6280 4317 c0 -10 4 -17 8 -17 21 0 53 -40 50 -62 -3 -20 -8 -23 -45
-22 -24 0 -48 7 -58 17 -9 10 -20 15 -25 12 -5 -3 -12 -1 -15 5 -4 7 -19 3
-41 -10 -19 -13 -42 -19 -52 -15 -11 3 -24 -1 -31 -8 -7 -9 -33 -14 -74 -14
-35 0 -76 -7 -93 -15 -32 -16 -61 -13 -85 8 -26 23 -76 7 -88 -27 -7 -22 -16
-29 -36 -29 -22 0 -25 -4 -23 -31 2 -22 9 -34 25 -40 26 -10 63 -44 63 -59 0
-9 15 -14 34 -11 4 1 14 -3 22 -10 8 -6 21 -9 29 -5 24 9 75 -5 75 -20 0 -8 5
-14 10 -14 6 0 10 10 10 23 0 12 3 32 6 43 4 15 -4 32 -24 56 -17 19 -28 39
-24 45 10 16 140 13 199 -5 49 -15 54 -14 72 2 26 24 91 14 98 -15 3 -10 11
-19 18 -19 10 0 12 -12 8 -42 -4 -24 -10 -44 -14 -46 -14 -6 -11 -32 4 -33 63
-8 133 36 123 77 -4 16 2 25 28 39 25 14 36 29 48 69 16 49 15 51 -7 78 -18
21 -24 24 -29 13 -8 -23 -34 -18 -38 7 -2 16 -15 27 -45 38 -22 8 -50 24 -62
34 -19 17 -21 17 -21 3z"/>
<path d="M1859 3931 c-8 -9 -14 -18 -14 -21 -3 -26 -21 -48 -52 -65 -35 -18
-38 -24 -37 -60 2 -84 31 -165 59 -165 9 0 12 -6 9 -15 -5 -12 -10 -13 -20 -4
-19 15 -29 -12 -15 -39 8 -15 8 -22 -2 -25 -9 -4 -9 -7 1 -15 14 -10 7 -62 -9
-62 -5 0 -9 -9 -9 -20 0 -11 6 -20 13 -20 8 0 14 -12 14 -29 0 -31 -23 -34
-29 -3 -3 17 -78 -94 -78 -117 0 -8 -3 -12 -6 -8 -9 9 -53 -34 -48 -48 3 -7
-8 -19 -25 -26 -17 -8 -31 -21 -31 -31 0 -9 -7 -18 -17 -20 -12 -2 -17 -16
-20 -53 -6 -100 -9 -117 -23 -125 -12 -7 -10 -14 10 -34 13 -15 32 -26 42 -26
11 0 23 -11 28 -25 5 -14 16 -25 24 -25 11 0 13 -10 10 -42 -4 -39 -24 -80
-24 -49 0 10 -3 11 -13 2 -8 -6 -17 -8 -21 -4 -4 4 -9 -3 -13 -16 -4 -17 -8
-19 -14 -9 -7 10 -11 10 -21 0 -10 -10 -10 -15 2 -22 13 -8 13 -10 -1 -10 -21
0 -53 -36 -44 -49 3 -6 13 -11 21 -11 12 0 18 -19 17 -57 -1 -7 8 -13 18 -13
10 0 19 -4 19 -10 0 -5 -10 -10 -22 -10 -17 0 -19 -3 -9 -9 11 -7 10 -11 -7
-20 -15 -8 -29 -7 -56 4 -20 9 -36 14 -36 11 0 -4 74 -54 121 -81 56 -31 83
-54 76 -61 -4 -4 -2 -13 4 -21 9 -10 5 -14 -19 -19 -18 -4 -34 -14 -37 -25 -4
-11 -16 -19 -27 -19 -12 0 -19 -3 -16 -6 3 -3 24 -5 47 -6 46 0 257 62 241 72
-5 3 6 6 25 7 19 1 47 10 62 21 148 104 472 179 699 162 128 -10 292 -43 479
-95 80 -23 135 -29 135 -17 0 6 -4 13 -8 16 -14 8 -1 63 19 85 24 25 33 26 55
4 15 -16 17 -16 29 0 9 12 15 13 23 5 15 -15 55 20 72 63 9 20 19 29 36 29 18
0 25 7 32 33 6 22 15 33 30 35 12 2 22 8 22 14 0 23 14 -3 15 -28 0 -18 -6
-30 -22 -37 -25 -11 -28 -23 -14 -46 8 -13 12 -13 26 -1 10 8 19 10 23 4 12
-16 74 -15 87 3 11 14 14 14 38 -2 14 -9 30 -14 35 -11 14 8 35 -21 26 -35 -4
-8 -3 -9 4 -5 7 4 12 1 12 -8 0 -38 109 -64 157 -38 17 10 25 9 37 -3 8 -8 28
-15 45 -15 16 0 33 -5 36 -11 5 -6 12 -4 21 8 8 11 13 13 14 6 0 -23 17 -14
39 20 11 17 21 28 21 22 0 -5 5 -3 10 5 8 13 10 13 10 -2 0 -9 6 -18 13 -21 7
-3 2 -9 -13 -15 -18 -8 -20 -11 -7 -11 19 -1 23 -16 6 -26 -6 -4 -8 -13 -5
-21 3 -7 -1 -19 -8 -27 -13 -12 -24 -56 -29 -107 -3 -39 -30 -100 -43 -100
-16 0 -26 -41 -13 -56 14 -18 82 -42 397 -145 156 -50 286 -89 289 -85 12 12
8 91 -4 89 -7 -2 -19 13 -28 33 -8 19 -19 33 -25 29 -5 -3 -10 -2 -10 3 0 11
-110 62 -134 62 -10 0 -15 4 -12 9 3 5 -12 24 -33 44 -55 49 -60 61 -24 53 21
-5 33 -2 45 11 18 21 32 107 16 97 -7 -5 -9 2 -4 20 4 18 3 25 -4 21 -5 -3
-10 2 -10 12 0 10 -9 33 -20 51 -27 43 -26 173 1 156 21 -13 7 12 -18 33 -16
12 -22 22 -15 23 6 0 12 -4 12 -8 0 -5 11 -14 25 -20 14 -6 25 -18 25 -26 0
-7 7 -13 17 -12 11 1 19 -10 25 -32 9 -35 37 -42 46 -12 3 8 1 12 -3 8 -4 -4
-16 4 -27 18 -15 18 -17 28 -9 38 12 14 5 73 -10 82 -4 2 -6 11 -2 19 7 19 40
19 50 0 7 -12 14 -13 41 -3 30 12 43 28 22 28 -5 0 -10 7 -10 15 0 11 11 15
39 15 51 0 62 17 28 45 -17 13 -27 30 -27 48 0 30 -3 32 -28 16 -15 -9 -24 -6
-52 22 -18 19 -42 54 -53 79 -11 25 -29 51 -39 59 -30 21 -38 52 -21 84 15 30
14 37 -9 41 -59 10 -75 40 -41 74 16 16 16 16 11 -5 -4 -14 -2 -23 5 -23 8 0
11 18 9 54 -4 52 -5 55 -34 61 -23 5 -27 9 -17 16 9 6 -2 9 -33 9 -26 0 -50 5
-54 11 -3 6 -17 8 -29 5 -31 -8 -62 3 -43 15 9 6 7 9 -8 9 -33 0 -48 -40 -41
-111 6 -55 5 -61 -12 -66 -11 -3 -22 -11 -25 -19 -3 -8 -14 -14 -25 -14 -11 0
-23 -4 -26 -10 -3 -5 -17 -10 -29 -10 -17 0 -25 7 -28 24 -4 22 -3 23 19 15
33 -12 52 -11 30 2 -31 18 -64 20 -71 4 -3 -8 -12 -15 -21 -15 -8 0 -15 -9
-15 -21 0 -19 -4 -20 -47 -13 -68 10 -94 21 -87 38 4 9 -5 15 -28 19 -18 3
-43 8 -54 12 -16 5 -23 2 -27 -14 -3 -15 -13 -21 -31 -21 -19 0 -26 -5 -26
-20 0 -16 -6 -20 -27 -20 -60 1 -128 -9 -131 -19 -2 -6 -10 -11 -17 -11 -8 0
-17 -4 -20 -10 -4 -6 3 -6 21 0 15 6 28 9 28 8 1 -2 10 -22 21 -45 10 -24 23
-43 29 -44 6 0 24 -2 39 -3 16 -1 31 -7 35 -14 10 -14 59 9 79 38 8 11 24 20
37 20 12 0 26 4 32 10 5 5 14 6 19 2 16 -11 36 -52 30 -61 -2 -5 5 -11 18 -15
12 -3 33 -15 45 -26 18 -17 22 -29 18 -60 -3 -22 -10 -49 -16 -60 -7 -12 -9
-32 -6 -45 7 -28 -31 -72 -47 -56 -13 13 -69 2 -84 -16 -16 -21 -69 -13 -65
10 2 11 -4 17 -16 17 -28 0 -72 23 -72 39 0 9 -7 11 -22 8 -22 -6 -22 -6 -4 8
12 9 15 15 7 15 -11 0 -11 3 0 17 13 15 11 16 -23 10 -36 -5 -37 -5 -33 24 2
20 -1 29 -11 29 -8 0 -14 6 -14 14 0 8 -6 16 -14 19 -8 3 -17 21 -21 39 -4 18
-16 43 -28 55 -17 20 -19 26 -8 49 7 16 8 31 2 38 -25 31 -16 51 38 84 29 17
58 32 64 32 24 0 77 25 77 36 0 22 45 83 61 84 21 0 36 19 41 50 1 13 13 30
26 36 13 6 23 15 23 20 -1 12 26 44 38 44 16 0 61 -41 61 -56 0 -8 7 -14 16
-14 23 0 84 -67 85 -93 0 -18 2 -17 11 8 17 49 30 60 45 39 11 -16 12 -12 8
26 -11 90 -11 95 12 104 21 10 37 60 25 81 -4 5 -5 22 -3 37 1 14 -2 29 -8 32
-6 4 -8 19 -5 34 5 26 3 27 -36 29 -34 2 -43 -1 -47 -17 -4 -14 -11 -18 -32
-14 -31 5 -66 -19 -58 -40 3 -8 -1 -22 -9 -33 -14 -17 -15 -17 -9 5 5 16 2 22
-9 22 -21 0 -59 -38 -51 -50 4 -6 1 -10 -4 -10 -6 0 -11 7 -11 15 0 19 -7 19
-27 -1 -9 -9 -25 -13 -37 -10 -26 6 -66 -3 -66 -16 0 -13 51 -58 66 -58 26 0
14 -42 -23 -76 -39 -37 -53 -39 -67 -7 -8 17 -16 19 -55 15 -45 -4 -47 -3 -61
29 -14 32 -19 34 -80 41 -70 8 -84 1 -73 -40 3 -13 -1 -30 -10 -40 -8 -10 -15
-36 -15 -60 1 -38 5 -46 32 -63 17 -10 34 -20 39 -22 4 -1 1 -25 -7 -52 -8
-28 -16 -61 -18 -75 -3 -24 -5 -24 -92 -26 -78 -1 -92 -4 -107 -23 -19 -23
-45 -28 -51 -10 -4 12 -133 15 -168 4 -12 -4 -20 -2 -20 4 0 6 7 11 15 11 8 0
15 7 15 16 0 8 5 12 11 9 5 -4 18 0 28 9 10 9 25 14 34 10 15 -5 15 -2 2 42
-8 27 -15 53 -15 57 0 5 -4 6 -9 3 -17 -11 -69 15 -75 38 -9 35 -41 66 -68 66
-23 0 -25 4 -26 46 0 30 4 44 11 41 17 -6 51 29 38 38 -6 3 -11 1 -11 -4 0
-17 -20 -13 -27 5 -3 9 -17 28 -29 42 -19 19 -21 28 -13 38 13 16 11 16 -51
18 -25 1 -48 -3 -52 -8 -4 -6 -11 -7 -15 -2 -4 4 4 18 20 32 l28 23 -25 7
c-14 3 -27 12 -30 20 -3 8 -16 14 -28 13 -13 0 -17 -3 -10 -6 18 -7 15 -21 -9
-28 -13 -4 -27 -1 -39 10 -17 15 -20 15 -51 -1 -25 -12 -37 -14 -50 -6 -10 6
-19 7 -21 2 -3 -9 -37 -14 -75 -12 -15 1 -23 8 -23 20 0 22 -66 46 -74 26 -3
-8 5 -14 22 -16 19 -2 28 -10 30 -25 2 -13 9 -23 16 -23 7 0 29 -10 47 -23 19
-13 41 -21 48 -19 7 2 16 -1 20 -7 7 -11 43 -23 71 -23 8 1 28 -2 43 -5 l29
-5 -21 -19 c-11 -10 -29 -19 -41 -19 -11 0 -20 -4 -20 -10 0 -5 7 -10 16 -10
27 0 11 -43 -23 -63 -26 -15 -35 -16 -51 -6 -22 14 -56 5 -50 -14 3 -6 19 -22
38 -34 18 -13 28 -23 21 -23 -7 0 -9 -4 -6 -10 3 -5 1 -10 -4 -10 -15 0 -14
-40 2 -41 6 -1 21 -3 32 -4 11 -1 27 -2 35 -3 23 -3 40 -55 25 -75 -7 -9 -15
-13 -19 -9 -4 4 -6 -6 -4 -23 2 -21 9 -31 23 -32 17 -2 17 -2 3 5 -12 5 -14
12 -9 21 11 18 31 5 31 -20 0 -14 -7 -19 -30 -19 -16 0 -30 5 -30 10 0 6 -7
10 -15 10 -8 0 -15 -6 -15 -14 0 -9 -9 -14 -20 -13 -11 1 -20 6 -20 12 0 6
-10 15 -22 20 -35 15 -33 41 6 81 20 21 34 40 31 43 -4 3 -10 -1 -15 -8 -6
-10 -30 -14 -82 -14 -66 1 -73 3 -76 22 -4 24 -6 25 -33 11 -10 -6 -19 -19
-19 -28 0 -48 -56 -56 -85 -12 -24 36 -25 36 -54 9 -18 -17 -22 -29 -18 -58 4
-32 1 -37 -27 -51 -21 -10 -31 -23 -33 -40 0 -14 -1 -30 -2 -37 -1 -6 -8 -19
-18 -28 -13 -13 -13 -19 -3 -25 10 -6 10 -9 -1 -13 -10 -4 -10 -6 -1 -6 26 -2
10 -21 -18 -21 -22 0 -30 -5 -30 -18 0 -10 5 -23 12 -30 9 -9 7 -12 -10 -12
-12 0 -22 -6 -22 -14 0 -7 -11 -21 -25 -30 -14 -9 -24 -22 -22 -28 1 -7 -6
-14 -15 -16 -11 -2 -18 2 -18 12 0 12 -10 16 -34 16 -19 0 -42 7 -50 15 -11
11 -21 13 -33 7 -10 -5 -48 -12 -85 -15 -58 -5 -68 -4 -68 10 0 15 -2 15 -18
0 -24 -22 -32 -21 -32 1 0 22 29 102 30 82 0 -9 8 -4 19 13 28 43 51 55 117
60 34 3 71 10 82 16 17 9 28 7 54 -8 18 -10 32 -24 31 -30 -4 -17 16 -13 43 8
20 16 22 20 9 31 -9 7 -12 22 -9 40 5 22 1 31 -15 39 -42 23 -13 87 47 106 35
10 26 59 -13 67 -15 3 -20 11 -18 30 1 20 -2 25 -13 21 -9 -3 -14 2 -14 16 0
13 8 23 23 27 18 4 23 11 20 28 -3 13 2 30 12 39 9 9 13 21 10 27 -3 6 1 18
11 27 12 12 13 18 5 21 -14 5 -35 51 -32 70 1 7 -5 15 -12 18 -9 3 -13 13 -9
26 4 17 1 19 -16 14 -15 -5 -24 -1 -31 12 -6 11 -7 22 -4 26 4 4 7 19 8 34 0
22 5 27 25 27 15 0 24 5 22 13 -1 8 2 11 7 8 12 -8 27 12 35 46 7 32 -8 45
-29 24 -14 -13 -13 -16 2 -25 11 -6 13 -11 5 -11 -7 0 -10 -4 -7 -10 3 -6 -1
-7 -9 -4 -9 3 -13 10 -10 15 3 5 -2 12 -10 15 -9 3 -16 12 -16 19 0 28 -108
50 -131 26z m863 -834 c15 -11 32 -33 39 -48 12 -31 29 -30 29 2 0 11 5 17 10
14 6 -4 8 -10 5 -15 -3 -4 2 -11 11 -14 8 -3 13 -10 10 -15 -3 -5 5 -4 19 2
14 7 25 15 25 20 0 4 14 7 30 7 17 0 30 -5 30 -11 0 -8 12 -10 34 -6 31 5 35
2 46 -24 17 -40 7 -59 -32 -59 -18 0 -40 -5 -48 -11 -11 -7 -3 -9 30 -4 43 6
44 5 20 -9 -14 -9 -32 -15 -41 -16 -9 0 -22 -13 -29 -29 -22 -54 -73 -46 -107
17 -17 32 -17 34 0 46 9 7 17 17 17 21 0 4 -7 2 -15 -5 -16 -14 -93 -20 -97
-9 -2 5 -13 -3 -26 -16 l-22 -23 30 -7 c23 -5 30 -12 30 -31 0 -21 -5 -24 -34
-24 -41 0 -52 -24 -25 -55 9 -11 20 -31 24 -43 6 -21 4 -23 -15 -17 -15 5 -20
4 -16 -4 4 -6 3 -11 -3 -11 -5 0 -15 14 -23 30 -7 17 -19 30 -26 30 -7 0 -23
7 -36 15 -21 14 -25 13 -46 -5 -30 -26 -42 -22 -53 21 -5 19 -17 42 -28 52
-22 21 -24 107 -2 107 7 0 13 4 13 10 0 5 23 21 51 36 28 14 53 33 56 42 4 17
46 42 70 42 7 0 13 4 13 9 0 11 31 20 45 12 6 -2 22 -14 37 -24z"/>
<path d="M3295 3826 c7 -41 4 -49 -24 -85 -26 -32 -42 -42 -86 -52 -40 -9 -59
-19 -72 -38 -9 -14 -31 -40 -50 -57 -38 -36 -41 -44 -13 -37 14 4 20 0 20 -11
0 -9 7 -16 15 -16 11 0 15 12 16 43 1 23 3 35 6 26 2 -9 15 -21 28 -27 14 -6
24 -8 22 -4 -1 4 3 7 8 7 6 0 9 -4 7 -8 -1 -5 1 -6 6 -3 4 3 7 23 6 45 -2 37
2 44 43 77 36 30 53 37 84 36 26 -1 39 2 39 11 0 7 14 23 30 35 34 26 39 52
10 52 -13 0 -20 7 -20 19 0 17 -4 18 -30 11 -19 -6 -29 -5 -27 2 1 6 -4 13
-11 15 -11 4 -12 -5 -7 -41z"/>
<path d="M4535 3733 c-3 -27 -8 -55 -9 -64 -2 -9 8 -29 21 -44 14 -14 26 -33
27 -41 1 -9 8 -19 16 -24 7 -4 13 -22 13 -39 0 -23 5 -31 18 -31 10 0 21 -4
24 -10 3 -5 21 -10 38 -10 35 -1 66 -19 60 -35 -2 -6 17 -24 42 -39 58 -37 70
-52 53 -63 -7 -4 -19 -21 -26 -37 -11 -26 -10 -30 14 -53 21 -19 24 -27 14
-36 -10 -9 -14 -9 -17 1 -3 6 -10 12 -17 12 -13 0 -9 -77 5 -86 5 -3 9 -14 9
-25 0 -10 9 -27 20 -36 11 -10 20 -27 20 -40 0 -12 17 -42 38 -66 20 -25 45
-55 55 -68 9 -13 17 -18 17 -11 0 15 36 16 46 1 3 -6 1 -14 -5 -18 -6 -4 -13
-17 -16 -30 -2 -12 0 -19 4 -17 5 3 20 10 35 16 25 9 26 11 11 26 -21 21 -15
37 14 39 26 2 49 -41 31 -59 -16 -16 -12 -61 9 -80 15 -13 20 -14 24 -4 3 7 6
8 6 2 1 -5 -6 -19 -15 -30 -8 -10 -12 -12 -8 -4 7 13 5 13 -9 1 -11 -8 -28
-11 -47 -8 -16 4 -32 2 -35 -3 -3 -6 -24 -10 -47 -10 -31 0 -41 -4 -45 -19 -7
-26 -44 -31 -65 -9 -10 10 -13 18 -8 18 6 0 10 9 10 20 0 11 5 20 10 20 6 0
10 6 10 13 0 6 -14 -3 -31 -21 -18 -20 -28 -40 -25 -49 4 -9 1 -21 -5 -29 -6
-7 -8 -36 -6 -68 3 -31 1 -54 -3 -51 -15 9 -61 -6 -57 -19 2 -6 21 -11 41 -12
25 0 41 -6 48 -18 5 -9 21 -21 34 -26 13 -5 24 -15 24 -22 0 -9 -3 -8 -10 2
-8 12 -10 11 -10 -5 0 -12 -5 -26 -10 -31 -15 -15 -1 -44 21 -44 27 0 36 -30
15 -46 -15 -11 -16 -18 -7 -47 6 -18 10 -44 9 -56 -5 -38 23 -48 79 -29 28 10
97 19 163 22 261 12 610 36 679 46 41 6 88 17 104 25 17 8 38 15 47 15 29 0
70 39 70 67 0 24 -50 99 -77 116 -7 4 -13 16 -13 26 0 27 -19 37 -75 41 -27 1
-62 3 -77 4 -16 2 -45 3 -65 5 -37 2 -37 2 -15 14 l23 13 -25 12 c-29 13 -33
27 -10 36 10 4 13 13 9 25 -3 10 1 24 10 31 9 8 23 29 31 48 10 26 18 33 31
28 10 -4 14 -4 10 0 -8 8 38 54 54 54 6 0 8 8 6 18 -3 9 -8 29 -11 44 -5 20
-10 25 -26 21 -11 -3 -32 -2 -46 1 l-27 7 27 28 c14 15 26 32 26 39 0 7 7 12
15 12 8 0 12 6 9 14 -3 9 5 22 21 32 22 14 31 15 46 6 16 -10 19 -9 19 4 0 12
-7 15 -30 12 -38 -6 -47 6 -20 25 25 18 28 63 7 107 -16 31 -16 35 -1 43 14 8
13 11 -5 24 -12 8 -26 11 -31 8 -6 -4 -10 8 -10 29 0 29 -10 44 -60 95 l-60
61 -43 -23 c-23 -13 -47 -33 -52 -44 -21 -40 -69 -72 -102 -67 -54 9 -54 -37
0 -59 27 -11 30 -17 31 -60 0 -26 -3 -48 -8 -50 -5 -2 -10 -18 -12 -37 -2 -19
-11 -39 -20 -45 -33 -21 -42 -31 -49 -52 -5 -19 -2 -23 17 -23 36 0 45 -11 52
-66 6 -47 4 -52 -22 -75 -15 -14 -36 -28 -46 -32 -18 -7 -18 -8 -1 -21 16 -12
17 -17 6 -43 -9 -22 -23 -32 -55 -42 -57 -16 -89 -11 -101 17 -5 12 -15 22
-22 22 -23 0 -33 36 -21 71 10 29 9 34 -10 50 -17 13 -22 28 -22 63 0 28 5 46
11 46 8 0 10 12 6 35 -3 19 -2 37 3 40 9 6 -52 70 -75 79 -37 14 -103 -48
-110 -105 -3 -18 -19 -43 -42 -64 -45 -42 -53 -43 -53 -10 0 15 -7 40 -16 56
-8 17 -13 38 -10 46 4 8 7 51 7 94 1 43 5 77 9 74 5 -3 12 0 16 6 4 8 9 7 15
-2 7 -11 9 -9 9 6 0 11 7 30 15 42 14 20 14 23 -5 33 -12 6 -31 12 -43 13 -30
3 -71 33 -62 46 4 7 -3 11 -16 11 -17 0 -19 3 -10 13 13 17 5 27 -22 27 -16 0
-18 5 -15 28 3 15 8 34 12 43 9 20 -57 58 -91 53 -15 -3 -23 1 -23 10 0 7 -8
20 -17 27 -15 12 -16 12 -8 -1 4 -8 -1 -6 -11 5 -11 11 -25 31 -31 45 -28 55
-108 160 -123 160 -5 0 -12 -21 -15 -47z m1177 -1253 c33 -10 108 -77 108 -99
0 -4 -29 -11 -64 -15 -36 -3 -107 -15 -158 -26 -51 -11 -120 -22 -153 -25
l-60 -5 50 14 c146 42 215 86 215 138 0 31 7 33 62 18z"/>
<path d="M141 3703 c56 -75 146 -187 318 -398 113 -137 155 -186 188 -221 16
-16 70 -76 121 -134 121 -139 283 -309 215 -225 -75 91 -81 101 -63 90 21 -14
84 -35 88 -30 19 19 -83 175 -115 175 -7 0 -15 11 -19 25 -3 14 -12 25 -18 25
-7 0 -22 14 -34 30 -13 17 -31 30 -42 30 -10 0 -22 9 -25 20 -9 29 -49 70 -69
70 -9 0 -16 5 -16 10 0 6 -5 10 -12 10 -6 0 3 -14 20 -31 18 -17 32 -36 32
-41 0 -5 4 -7 8 -4 5 3 16 -9 26 -25 11 -18 24 -28 31 -25 8 3 12 0 10 -7 -6
-16 21 -51 34 -43 5 4 13 2 16 -4 4 -6 3 -10 -2 -9 -18 3 -33 -2 -33 -11 0 -5
13 -7 32 -3 23 5 29 3 24 -6 -5 -7 -14 -10 -22 -7 -8 3 -14 -1 -14 -9 0 -9 8
-14 22 -12 15 1 23 -4 26 -17 5 -22 26 -46 40 -46 12 0 23 -26 15 -34 -13 -12
-33 -5 -58 19 -31 32 -32 39 -2 25 20 -10 20 -10 5 3 -10 8 -14 18 -10 22 4 4
-3 2 -15 -4 -18 -9 -23 -9 -23 1 0 7 -12 22 -26 33 -36 27 -439 503 -632 748
-65 82 -79 89 -21 10z"/>
<path d="M2340 3726 c0 -22 -17 -28 -40 -16 -25 13 -60 4 -60 -16 0 -8 -9 -14
-20 -14 -16 0 -20 -7 -20 -30 0 -23 -5 -30 -19 -30 -25 0 -36 -16 -15 -24 9
-3 12 -11 8 -18 -5 -8 -2 -9 10 -5 10 4 29 10 42 13 15 4 24 13 24 25 0 11 7
22 15 25 8 4 12 11 8 17 -4 6 4 7 23 3 16 -4 31 -12 32 -17 5 -13 26 -11 58 6
20 10 23 15 12 15 -12 0 -18 8 -18 23 -1 22 -21 57 -34 57 -3 0 -6 -6 -6 -14z"/>
<path d="M5177 3699 c-4 -16 -11 -20 -27 -16 -17 4 -21 1 -18 -16 1 -13 -10
-40 -27 -62 -45 -60 -51 -65 -79 -65 -20 0 -26 -5 -26 -22 0 -17 3 -20 9 -9 6
9 19 12 38 8 18 -3 41 0 57 9 16 8 44 14 63 14 l34 0 -5 -50 c-2 -27 -7 -53
-10 -59 -3 -5 2 -15 11 -22 9 -8 28 -33 42 -56 24 -38 29 -43 47 -43 3 0 -7
-11 -22 -25 -15 -14 -32 -25 -38 -25 -23 0 -37 -18 -41 -53 -5 -38 9 -57 28
-38 6 6 19 11 29 11 10 0 18 5 18 10 0 16 27 12 34 -5 3 -8 10 -15 16 -15 6 0
9 3 6 8 -2 4 2 22 9 40 10 23 23 34 45 38 25 5 30 11 30 35 0 15 5 31 10 34
15 9 12 34 -5 51 -11 12 -19 13 -36 4 -19 -11 -20 -10 -10 9 14 25 14 34 1 26
-6 -4 -17 -2 -25 5 -8 7 -27 9 -48 5 -24 -5 -34 -3 -35 7 -3 47 -24 134 -37
155 -15 22 -15 27 -1 55 21 41 21 72 1 64 -8 -3 -15 -1 -15 4 0 19 -18 10 -23
-11z"/>
<path d="M0 3526 c0 -12 80 -123 177 -246 46 -58 137 -175 204 -260 163 -208
376 -447 388 -434 3 2 -13 23 -36 47 -22 23 -63 70 -91 104 -28 34 -55 68 -61
75 -41 49 -81 110 -77 116 3 5 0 14 -6 22 -8 12 -9 12 -4 -2 3 -10 1 -18 -4
-18 -10 0 -139 158 -338 414 -145 186 -152 194 -152 182z"/>
<path d="M3350 2490 c-8 -5 -25 -10 -37 -10 -14 0 -23 -6 -23 -15 0 -10 -10
-15 -31 -15 -47 0 -30 -22 32 -41 30 -9 95 -30 145 -45 88 -28 144 -33 144
-12 0 5 -7 8 -15 4 -15 -5 -72 22 -109 53 -14 12 -20 13 -23 4 -9 -25 -53 17
-53 49 0 17 4 27 10 23 6 -3 10 -1 10 4 0 14 -30 14 -50 1z"/>
<path d="M496 2435 c24 -25 62 -56 84 -70 45 -29 69 -47 114 -89 62 -57 220
-113 283 -101 37 7 37 8 13 18 -140 57 -334 170 -346 202 -4 8 -10 12 -15 9
-5 -3 -9 0 -9 6 0 6 -11 15 -25 22 -13 6 -22 15 -18 21 3 6 1 7 -4 4 -6 -4
-27 0 -47 8 -68 29 -77 19 -30 -30z"/>
<path d="M2196 2473 c-27 -2 -58 -10 -69 -18 -12 -8 -33 -12 -51 -9 -24 4 -28
3 -16 -5 13 -9 12 -11 -5 -12 -11 -1 -28 -1 -38 -1 -11 1 -16 -2 -11 -10 4 -7
3 -8 -5 -4 -6 4 -36 -7 -66 -24 -30 -17 -128 -56 -217 -85 -90 -30 -248 -83
-353 -118 -104 -36 -206 -68 -225 -73 l-35 -8 40 -8 c77 -17 98 -15 111 10 6
13 17 29 24 35 12 11 9 -6 -7 -48 -6 -16 157 2 277 32 163 40 210 72 178 122
-7 11 -9 24 -5 28 5 4 12 2 16 -6 10 -15 18 -13 48 15 13 12 38 27 56 34 17 7
46 18 62 25 178 78 334 92 585 55 194 -29 402 -89 730 -210 63 -24 135 -49
160 -58 288 -96 608 -221 759 -296 58 -30 135 -64 171 -76 36 -13 70 -27 75
-31 6 -4 35 -17 64 -29 30 -12 78 -32 105 -45 28 -13 101 -44 161 -70 61 -26
146 -63 190 -82 44 -20 107 -46 140 -60 97 -39 199 -85 213 -96 15 -12 16 -27
1 -27 -6 0 -26 -7 -44 -16 -31 -14 -39 -14 -92 1 -32 9 -86 31 -120 47 -61 31
-62 31 -100 14 -70 -32 -103 -50 -103 -58 0 -5 -10 -8 -22 -8 -40 -1 76 -37
176 -55 52 -9 103 -23 113 -30 17 -12 16 -14 -12 -20 -47 -11 -97 -27 -93 -30
2 -2 53 -8 113 -14 116 -11 171 -26 180 -50 3 -7 4 -15 3 -16 -6 -6 -417 -36
-618 -45 -370 -17 -1024 -8 -1485 20 -82 5 -231 14 -330 19 -273 16 -733 55
-840 71 -33 5 -105 14 -160 20 -267 30 -739 107 -1135 187 -69 14 -145 29
-170 34 -25 4 -70 15 -100 23 -30 8 -100 25 -155 37 -55 11 -137 31 -182 43
l-83 23 0 -109 0 -108 31 0 c28 0 79 -37 79 -56 0 -3 -25 -2 -55 1 l-55 7 0
-535 0 -535 68 -4 c49 -3 76 1 100 13 26 13 51 16 115 12 79 -5 83 -6 113 -40
31 -35 31 -36 13 -54 -36 -36 -26 -41 108 -55 56 -6 62 -4 72 15 9 15 9 27 1
41 -12 23 0 54 24 63 18 7 159 -7 175 -17 31 -20 -5 -65 -52 -67 l-32 -1 36
-7 c19 -4 51 -19 70 -33 46 -34 167 -55 207 -35 21 11 40 12 87 4 39 -7 930
-11 2578 -14 2154 -3 2517 -1 2517 11 0 8 -13 27 -28 44 -28 29 -33 65 -13 85
4 4 47 11 94 15 67 6 93 5 114 -7 18 -9 53 -13 107 -12 64 2 82 6 95 22 13 16
29 20 84 20 37 1 67 4 67 8 0 4 -28 13 -62 21 -36 8 -54 16 -43 18 11 2 24 8
30 13 13 13 69 11 83 -3 7 -7 12 -19 12 -28 0 -9 13 -26 30 -38 24 -18 43 -22
109 -22 44 0 83 4 86 10 3 5 -4 23 -16 39 -11 15 -19 37 -17 47 3 17 15 19 97
22 71 2 99 -1 117 -13 16 -10 48 -15 98 -15 65 0 77 3 86 20 8 16 22 20 63 21
l52 1 -40 9 c-96 23 -100 25 -103 45 -3 19 4 22 74 28 61 5 82 3 101 -9 l23
-15 0 255 0 255 -42 -7 c-85 -16 -357 -7 -507 16 -468 71 -1045 249 -1576 486
-145 64 -443 193 -575 248 -41 17 -106 45 -145 63 -124 56 -158 71 -305 132
-397 164 -634 257 -965 379 -126 46 -264 97 -305 112 -120 45 -353 118 -503
156 -139 35 -269 48 -381 38z"/>
<path d="M2145 2288 c-22 -5 -80 -23 -130 -38 -49 -16 -108 -32 -130 -36 -22
-4 -63 -17 -92 -29 -28 -13 -111 -40 -185 -60 -73 -20 -152 -43 -175 -51 -42
-14 -152 -35 -208 -40 -16 -1 -66 -12 -110 -24 -177 -46 -309 -45 -455 4 -50
17 -78 22 -89 16 -14 -8 -14 -9 1 -10 11 0 15 -5 12 -15 -4 -10 0 -15 10 -15
19 0 160 -57 193 -78 13 -8 23 -22 23 -32 0 -22 16 -29 55 -23 17 3 48 -2 69
-11 l38 -16 -23 -21 -24 -20 30 6 c17 3 37 8 45 10 9 3 19 -4 25 -18 8 -18 17
-21 45 -19 67 5 113 2 127 -9 8 -7 43 -11 83 -10 66 2 97 -12 48 -22 -21 -4
-20 -4 3 -6 15 0 48 3 75 8 30 6 91 5 154 0 58 -5 114 -10 125 -10 15 0 10 -6
-17 -20 -20 -10 -39 -22 -42 -27 -7 -12 117 -3 208 15 48 9 81 11 85 5 10 -16
51 -34 51 -22 0 5 5 10 10 10 6 0 10 -7 10 -16 0 -8 5 -12 10 -9 6 3 10 -1 10
-9 0 -20 32 -53 57 -59 15 -4 14 -5 -4 -6 -44 -2 -22 -16 54 -35 72 -17 77
-18 89 -2 11 16 13 16 22 -1 16 -27 20 -13 15 45 -4 35 -10 52 -19 52 -17 0
-18 17 -1 23 20 7 -17 41 -95 88 -44 27 -67 47 -64 55 7 19 -32 18 -53 0 -20
-17 -107 -36 -166 -36 -42 0 -45 2 -45 28 0 21 10 34 46 59 l46 31 -37 41
c-38 42 -40 56 -4 22 44 -40 149 -51 149 -15 0 8 16 22 35 30 30 12 40 12 77
-1 61 -21 84 -19 117 13 37 33 47 70 27 97 -15 19 -15 18 -16 -16 0 -21 -8
-47 -19 -60 -16 -20 -23 -22 -47 -14 -32 11 -34 29 -4 33 11 2 20 8 20 13 0 6
-27 9 -66 7 -63 -3 -67 -1 -87 25 -19 24 -20 29 -7 37 11 7 5 10 -21 10 -33 0
-132 33 -152 51 -8 6 53 30 116 43 15 4 27 10 27 15 0 11 137 57 195 65 35 6
38 5 23 -7 -26 -20 -22 -37 10 -43 15 -4 54 -21 87 -38 57 -30 60 -34 82 -96
26 -78 86 -140 206 -212 132 -79 197 -88 471 -65 25 2 30 -3 42 -37 18 -51 36
-70 82 -88 196 -79 336 -129 400 -143 23 -5 32 -3 32 7 0 10 2 10 8 0 5 -7 36
-17 71 -23 49 -7 72 -6 113 6 28 8 62 15 75 15 13 0 23 4 23 9 0 5 27 19 59
31 33 12 67 30 77 41 9 10 23 19 29 19 7 0 18 6 24 14 10 11 7 17 -11 30 -22
16 -21 16 25 16 26 0 47 4 47 9 0 14 -69 38 -130 45 -50 6 -53 6 -36 -8 10 -8
24 -17 30 -19 31 -12 -114 -92 -216 -117 -45 -12 -88 -26 -95 -32 -15 -12 -48
-5 -168 32 -49 15 -133 40 -185 55 -91 25 -190 80 -190 105 0 18 27 10 117
-34 79 -40 231 -92 240 -82 2 2 -30 16 -72 31 -76 27 -115 55 -59 41 46 -12
382 -29 402 -21 9 4 25 9 36 10 16 2 15 -1 -5 -17 -13 -10 -40 -27 -59 -38
-45 -25 -28 -25 53 0 103 32 151 82 90 95 -16 4 -40 13 -55 21 -14 8 -35 14
-47 14 -11 0 -41 10 -66 22 -40 19 -47 20 -56 8 -8 -13 -10 -13 -18 0 -5 8 -7
18 -5 22 4 7 -10 10 -32 7 -4 0 -10 3 -13 8 -8 12 -131 66 -223 98 -63 22 -81
25 -93 15 -8 -7 -22 -10 -30 -6 -8 3 -15 0 -15 -7 0 -13 -35 -47 -48 -47 -5 0
-9 6 -9 13 0 6 -4 24 -8 39 -6 25 -5 27 25 26 63 -2 54 18 -22 50 -121 50
-217 75 -203 52 12 -20 -12 -9 -36 16 -16 17 -31 24 -46 21 -12 -2 -21 0 -20
6 4 19 -280 98 -438 123 -50 8 -50 8 -15 13 19 4 -32 7 -115 8 -82 0 -168 -3
-190 -9z"/>
<path d="M3962 1385 c7 -7 41 -11 116 -14 35 -1 42 -4 42 -21 0 -19 7 -20 163
-21 89 0 182 -2 207 -4 104 -8 150 23 54 37 -92 13 -592 33 -582 23z"/>
<path d="M7415 1334 c-33 -7 -86 -18 -117 -24 -32 -6 -58 -15 -58 -19 0 -7 77
-21 208 -37 l52 -7 0 52 c0 57 4 55 -85 35z"/>
</g>
</svg>
